Coordinates
version=1
nRows=6
nColumns=36
inDegrees=yes

Units are S.I. units (second, meters, Newtons, ...)
If the header above contains a line with 'inDegrees', this indicates whether rotational values are in degrees (yes) or radians (no).

endheader
time	pelvis_tilt	pelvis_list	pelvis_rotation	pelvis_tx	pelvis_ty	pelvis_tz	hip_flexion_r	hip_adduction_r	hip_rotation_r	knee_angle_r	knee_angle_r_beta	ankle_angle_r	subtalar_angle_r	mtp_angle_r	hip_flexion_l	hip_adduction_l	hip_rotation_l	knee_angle_l	knee_angle_l_beta	ankle_angle_l	subtalar_angle_l	mtp_angle_l	lumbar_extension	lumbar_bending	lumbar_rotation	arm_flex_r	arm_add_r	arm_rot_r	elbow_flex_r	pro_sup_r	arm_flex_l	arm_add_l	arm_rot_l	elbow_flex_l	pro_sup_l
      0.00000000	      4.59057931	      0.98497074	      3.43371491	     -0.16453604	      0.91649557	      0.12325963	     -1.05845276	     -5.53264514	     -4.49725305	      4.27579702	      0.07462674	      3.36682639	     -2.85339241	     -7.02860377	     -0.61473301	     -7.16219910	     -4.04969737	      5.52483181	      0.09642651	     10.46052684	      1.42866796	     -7.02860377	     -3.58257804	      2.57308761	      6.35235029	     50.62947565	     21.32349047	     65.17535231	    129.18918286	    101.22430025	     66.87639775	     24.37720678	     66.89652299	    115.04811471	    101.86084284
      0.01666670	      3.18873542	      1.13285197	      2.63073151	     -0.15787299	      0.91514065	      0.12167681	      0.70344671	     -5.55841486	     -3.22849245	      4.40864162	      0.07694531	      6.03092195	     -3.14774767	     -7.10214800	      0.76790235	     -6.37773415	     -3.24586505	      5.88367699	      0.10268954	     10.60660514	      0.78656323	     -7.10214800	     -0.77824913	      2.75889198	      5.45013878	     51.19637219	     23.09351364	     64.05418721	    130.23404976	     98.35402552	     67.54197515	     23.01410187	     65.40107297	    118.37827640	     97.89150804
      0.03333330	      2.07378436	      1.62549319	      2.19691407	     -0.15824221	      0.91392167	      0.12303894	      1.75267279	     -6.04263906	     -3.67159511	      3.88942221	      0.06788322	      5.65124823	     -3.80872616	     -7.20904524	      1.94731417	     -5.87742736	     -3.18300236	      5.86786784	      0.10241361	      9.87733268	      0.42452511	     -7.20904524	      1.13378668	      2.23087498	      6.24020179	     50.78156829	     23.74119831	     66.23616391	    131.51698933	    106.32078135	     66.27086370	     23.02382713	     65.65715546	    119.59303007	     98.92371577
      0.05000000	      1.85241664	      2.02122368	      1.96423108	     -0.15918731	      0.91714225	      0.12311793	      1.95445879	     -6.49839324	     -3.85940969	      3.68454226	      0.06430739	      5.44587260	     -3.71054165	     -7.23886411	      1.79151608	     -5.48109413	     -2.98051201	      5.18943260	      0.09057269	      9.18472536	      0.08377179	     -7.23886411	      1.81762411	      1.73976275	      6.68722481	     50.60808715	     23.97002879	     69.18713843	    132.33575430	    105.39563990	     65.53229634	     23.00238431	     66.33952953	    118.89773103	     97.73686198
      0.06666670	      1.76240360	      2.18604761	      1.89001246	     -0.15818946	      0.91620094	      0.12356771	      1.84147070	     -6.68428941	     -3.87334912	      3.45670298	      0.06033085	      5.35057287	     -3.54603404	     -7.26880159	      1.57265270	     -5.33286829	     -2.80724115	      4.47659763	      0.07813137	      8.58206740	     -0.20708391	     -7.26880159	      1.95978694	      1.68108172	      6.76023623	     48.59822174	     21.81033312	     66.79320063	    132.09020947	    104.07126904	     65.37585690	     22.15230725	     66.34107765	    118.38354355	     96.70565833
      0.08333330	      1.70579540	      2.45531438	      1.77510997	     -0.15805326	      0.91519831	      0.12410915	      1.87090615	     -6.92741354	     -3.87042335	      3.32910815	      0.05810390	      5.38883905	     -3.35389190	     -7.32562386	      1.43377657	     -5.02296795	     -2.54281373	      3.95295643	      0.06899210	      7.96522270	     -0.68310300	     -7.32562386	      2.15332502	      1.35055562	      6.62083611	     48.71196916	     23.16243765	     69.53362720	    131.22112406	    100.91165733	     65.24508754	     21.93970301	     67.49629124	    118.09406367	     93.99721730
